
<svg width="1920px" height="275px" viewBox="0 0 1920 275" version="1.1" xmlns="http://www.w3.org/2000/svg" xmlns:xlink="http://www.w3.org/1999/xlink">
    <g id="Page-1" stroke="none" stroke-width="1" fill="none" fill-rule="evenodd">
        <path d="M0,193.862496 C56.6837925,150.322685 157.200041,145.117164 301.548747,178.245933 C447.974528,211.851402 534.36896,168.31235 712,166.122276 C1161,160.586404 1242,25.3025622 1492,38.2355116 C1658.66667,46.8574779 1801.33333,34.1123073 1920,0 L1920,274.954133 L0,274.954133 L0,193.862496 Z" id="Rectangle" fill="#141414" opacity="0.300000012"></path>
        <path d="M0,223.624919 C92.125,173.695619 202.544271,163.221661 331.257812,192.203044 C524.328125,235.67512 667,201.490957 813,161.218898 C883.234105,141.845802 981.131627,165.386458 1102,153.559543 C1232.38823,140.801114 1331.83426,25.0502792 1499,54.9553552 C1676.79029,86.7611064 1817.12362,75.4426547 1920,21 L1920,274.426686 L0,274.426686 L0,223.624919 Z" id="Rectangle" fill="#141414" opacity="0.5"></path>
        <path d="M0,272.578959 C115.669271,201.598645 259.670573,185.352551 432.003906,223.840678 C690.503906,281.572868 732,126.760666 968,183.485209 C1204,240.209751 1327.40234,26.0327196 1544,68.6538133 C1688.39844,97.0678758 1813.73177,95.2281958 1920,63.1347733 L1920,274.679069 L0,274.679069 L0,272.578959 Z" id="Rectangle" fill="#141414"></path>
    </g>
</svg>
