
<svg width="1920px" height="275px" viewBox="0 0 1920 275" version="1.1" xmlns="http://www.w3.org/2000/svg" xmlns:xlink="http://www.w3.org/1999/xlink">
    <g id="Page-1" stroke="none" stroke-width="1" fill="none" fill-rule="evenodd">
        <path d="M0,193.862496 C56.6837925,150.322685 157.200041,145.117164 301.548747,178.245933 C447.974528,211.851402 534.36896,168.31235 712,166.122276 C1161,160.586404 1242,25.3025622 1492,38.2355116 C1658.66667,46.8574779 1801.33333,34.1123073 1920,0 L1920,274.954133 L0,274.954133 L0,193.862496 Z" id="Rectangle" fill="#1E1F22" opacity="0.300000012" transform="translate(960.000000, 137.477067) scale(-1, -1) translate(-960.000000, -137.477067) "></path>
        <path d="M0,202.624919 C92.125,152.695619 202.544271,142.221661 331.257812,171.203044 C524.328125,214.67512 667,180.490957 813,140.218898 C883.234105,120.845802 981.131627,144.386458 1102,132.559543 C1232.38823,119.801114 1331.83426,4.05027917 1499,33.9553552 C1676.79029,65.7611064 1817.12362,54.4426547 1920,0 L1920,253.426686 L0,253.426686 L0,202.624919 Z" id="Rectangle" fill="#1E1F22" opacity="0.5" transform="translate(960.000000, 126.713343) scale(-1, -1) translate(-960.000000, -126.713343) "></path>
        <path d="M0,209.578959 C115.669271,138.598645 259.670573,122.352551 432.003906,160.840678 C690.503906,218.572868 732,63.7606665 968,120.485209 C1204,177.209751 1327.40234,-36.9672804 1544,5.65381331 C1688.39844,34.0678758 1813.73177,32.2281958 1920,0.134773276 L1920,211.679069 L0,211.679069 L0,209.578959 Z" id="Rectangle" fill="#1E1F22" transform="translate(960.000000, 105.839534) scale(-1, -1) translate(-960.000000, -105.839534) "></path>
    </g>
</svg>
